<svg xmlns="http://www.w3.org/2000/svg" width="410" height="445.412" viewBox="0 0 410 445.412">
  <g id="error" transform="translate(-51 -33.293)">
    <path id="Path_3" data-name="Path 3" d="M312.71,473.712H199.289l22.682-89.9h68.057Z" fill="#a9aeb3"/>
    <path id="Path_4" data-name="Path 4" d="M297.928,415.109H214.071l7.9-31.3h68.057Z" fill="#73969b"/>
    <path id="Path_5" data-name="Path 5" d="M456,131.758v254.25a15.005,15.005,0,0,1-15,15H71a15.005,15.005,0,0,1-15-15V131.758a15.005,15.005,0,0,1,15-15H441A15.005,15.005,0,0,1,456,131.758Z" fill="#f5f4f9"/>
    <path id="Path_6" data-name="Path 6" d="M138.584,290.176H373.415a10,10,0,0,0,8.594-15.112L264.595,77.681a10,10,0,0,0-17.189,0L129.99,275.064a10,10,0,0,0,8.594,15.112Z" fill="#e8e6ed"/>
    <path id="Path_7" data-name="Path 7" d="M456,206.733V131.758a15.005,15.005,0,0,0-15-15H71a15.005,15.005,0,0,0-15,15v74.975Z" fill="#d9e0e6"/>
    <path id="Path_8" data-name="Path 8" d="M456,164.929V131.758a15,15,0,0,0-15-15H71a15,15,0,0,0-15,15v33.171Z" fill="#d9e0e6"/>
    <path id="Path_9" data-name="Path 9" d="M56,350.616v35.39a15,15,0,0,0,15,15H441a15,15,0,0,0,15-15v-35.39Z" fill="#cecae0"/>
    <g id="Group_1" data-name="Group 1">
      <path id="Path_10" data-name="Path 10" d="M94.082,145.916a5,5,0,0,1-5-5v-.145a5,5,0,0,1,10,0v.145A5,5,0,0,1,94.082,145.916Z" fill="#5abdca"/>
      <path id="Path_11" data-name="Path 11" d="M113.406,145.916a5,5,0,0,1-5-5v-.145a5,5,0,0,1,10,0v.145A5,5,0,0,1,113.406,145.916Z" fill="#5abdca"/>
      <path id="Path_12" data-name="Path 12" d="M132.731,145.916a5,5,0,0,1-5-5v-.145a5,5,0,1,1,10,0v.145A5,5,0,0,1,132.731,145.916Z" fill="#5abdca"/>
    </g>
    <path id="Path_13" data-name="Path 13" d="M138.584,276.676H373.415a10,10,0,0,0,8.594-15.112L264.595,64.181a10,10,0,0,0-17.189,0L129.99,261.564a10,10,0,0,0,8.594,15.112Z" fill="#5abdca"/>
    <path id="Path_14" data-name="Path 14" d="M441,111.758H323.354a5,5,0,0,0,0,10H441a10.011,10.011,0,0,1,10,10v28.171H327.369L268.891,61.624a15,15,0,0,0-25.783,0l-29.823,50.133H71a20.023,20.023,0,0,0-20,20V386.005a20.023,20.023,0,0,0,20,20H211.215l-9.71,38.487a5,5,0,1,0,9.7,2.446L221.528,406h68.945l15.819,62.7H180.066a5,5,0,1,0,0,10H331.933a5,5,0,0,0,0-10H316.6L300.784,406H441a20.023,20.023,0,0,0,20-20V131.758a20.023,20.023,0,0,0-20-20Zm10,58.171V345.615H61V169.929H178.683l-52.989,89.078a15,15,0,0,0,12.891,22.669H373.417a15,15,0,0,0,12.891-22.668L333.319,169.93H451ZM251.7,66.737a5,5,0,0,1,8.6,0L377.713,264.12a5,5,0,0,1-4.3,7.555H138.584a5,5,0,0,1-4.3-7.556ZM71,121.758H207.338l-22.707,38.171H61V131.758A10.011,10.011,0,0,1,71,121.758ZM441,396.005H71a10.011,10.011,0,0,1-10-10v-30.39H451v30.39A10.011,10.011,0,0,1,441,396.005Z" fill="#51514f"/>
    <path id="Path_15" data-name="Path 15" d="M256,209.87a10,10,0,0,1-10-10V134.12a10,10,0,0,1,20,0v65.75A10,10,0,0,1,256,209.87Z" fill="#f5f4f9"/>
    <path id="Path_16" data-name="Path 16" d="M256,240.928a10,10,0,0,1-10-10v-.115a10,10,0,0,1,20,0v.115A10,10,0,0,1,256,240.928Z" fill="#f5f4f9"/>
    <path id="Path_17" data-name="Path 17" d="M123.1,322.921a4.983,4.983,0,0,1-3.535-1.464,6.005,6.005,0,0,0-8.485,0,5,5,0,1,1-7.07-7.072,6,6,0,0,0,0-8.485,5,5,0,1,1,7.07-7.071,6,6,0,0,0,8.484,0,5,5,0,0,1,7.072,7.071,6.006,6.006,0,0,0,0,8.485,5,5,0,0,1-3.535,8.536Z" fill="#5abdca" stroke="#5abdca" stroke-width="1"/>
    <path id="Path_18" data-name="Path 18" d="M163.771,322.921a4.983,4.983,0,0,1-3.535-1.464,6.007,6.007,0,0,0-8.486,0,5,5,0,1,1-7.07-7.072,6,6,0,0,0,0-8.485,5,5,0,1,1,7.07-7.071,6.008,6.008,0,0,0,8.486,0,5,5,0,1,1,7.07,7.071,6,6,0,0,0,0,8.485,5,5,0,0,1-3.535,8.536Z" fill="#5abdca"/>
    <path id="Path_19" data-name="Path 19" d="M204.438,322.921a4.983,4.983,0,0,1-3.535-1.464,6.007,6.007,0,0,0-8.486,0,5,5,0,1,1-7.07-7.072,6,6,0,0,0,0-8.485,5,5,0,1,1,7.07-7.071,6.008,6.008,0,0,0,8.486,0,5,5,0,1,1,7.07,7.071,6,6,0,0,0,0,8.485,5,5,0,0,1-3.535,8.536Z" fill="#5abdca"/>
    <path id="Path_20" data-name="Path 20" d="M399.443,305.694H242.289a5.008,5.008,0,0,1,0-10.016H399.443a5.008,5.008,0,1,1,0,10.016Z" fill="#ddd9e4"/>
    <path id="Path_21" data-name="Path 21" d="M399.443,324.608H242.289a5.008,5.008,0,0,1,0-10.016H399.443a5.008,5.008,0,1,1,0,10.016Z" fill="#ddd9e4"/>
    <path id="Path_22" data-name="Path 22" d="M143.749,455.8a5,5,0,0,1-3.535-1.464L129.2,443.314a5,5,0,0,1,0-7.071l11.018-11.018a5,5,0,0,1,7.07,0L158.3,436.243a5,5,0,0,1,0,7.072l-11.019,11.018a5,5,0,0,1-3.535,1.463ZM139.8,439.778l3.946,3.947,3.947-3.947-3.947-3.947Z" fill="#5abdca"/>
    <path id="Path_23" data-name="Path 23" d="M320.866,84.021a5,5,0,0,1-3.535-1.464L306.312,71.539a5,5,0,0,1,0-7.072l11.019-11.018a5,5,0,0,1,7.07,0l11.018,11.018a5,5,0,0,1,0,7.071L324.4,82.556a5,5,0,0,1-3.535,1.465ZM316.919,68l3.947,3.947L324.812,68l-3.946-3.947Z" fill="#51514f"/>
    <path id="Path_24" data-name="Path 24" d="M364.982,65.329a5,5,0,0,1-5-5,6.025,6.025,0,0,0-6.019-6.018,5,5,0,0,1,0-10,6.026,6.026,0,0,0,6.019-6.018,5,5,0,1,1,10,0A6.025,6.025,0,0,0,376,44.311a5,5,0,0,1,0,10,6.025,6.025,0,0,0-6.018,6.018A5,5,0,0,1,364.982,65.329Z" fill="#51514f"/>
    <path id="Path_25" data-name="Path 25" d="M163.771,84.021a5,5,0,0,1-5-5A6.025,6.025,0,0,0,152.753,73a5,5,0,0,1,0-10,6.025,6.025,0,0,0,6.018-6.018,5,5,0,0,1,10,0A6.025,6.025,0,0,0,174.79,63a5,5,0,0,1,0,10,6.026,6.026,0,0,0-6.019,6.018A5,5,0,0,1,163.771,84.021Z" fill="#51514f"/>
  </g>
</svg>
