<svg xmlns="http://www.w3.org/2000/svg" width="526" height="106" viewBox="0 0 526 106">
  <g id="Screenshot_1" transform="translate(-11 111)">
    <path id="Path_29" data-name="Path 29" d="M145-58V-5h18v-9.6c0-9.1-.1-9.8-3-13.4-13.2-16.6-13.1-39.3.1-56.1,2.8-3.6,2.9-4,2.9-15.3V-111H145Z" fill="#d9e0e6"/>
    <path id="Path_30" data-name="Path 30" d="M195.3-96.9a40.409,40.409,0,0,0-31.5,28.2c-2.7,9-2.2,21.4,1.3,30.1,3.2,8.2,11.3,16.7,19.8,20.8,6.4,3.2,7,3.3,19.1,3.3s12.7-.1,19-3.2a51.13,51.13,0,0,0,10.3-6.9l3.8-3.5-5.7-6.6c-3.2-3.6-6.3-6.7-7-7s-2.8.7-4.7,2.1c-7.7,5.9-15.9,7.1-23.5,3.5-14.1-6.9-14.7-30.6-.8-39,3.5-2.1,11.7-2.6,16.2-.9a36.849,36.849,0,0,1,6.7,4.2l3.9,3.2,7.7-7.8,7.6-7.8-4-3.4C223.5-96.1,208.9-99.6,195.3-96.9Z" fill="#d9e0e6"/>
    <path id="Path_31" data-name="Path 31" d="M112-47.5V-5h17V-90H112Z" fill="#d9e0e6"/>
    <path id="Path_32" data-name="Path 32" d="M286.5-79c-.3,6.1-.3,18,0,26.5l.8,15.5h5.3c4.3,0,5.4-.3,5.4-1.6,0-.9.3-1.4.8-1.2,9.5,4.9,16,4.9,22,.1,9.5-7.7,9.4-26.5-.3-33.9A17.223,17.223,0,0,0,303-75.1a48.019,48.019,0,0,1-4.5,2.1c-.3,0-.5-3.8-.5-8.5V-90H287.3Zm26.6,14.9c2.4,2.4,2.9,3.8,2.9,7.6C316-46,304.2-42,299.5-51,294-61.5,305-72.1,313.1-64.1Z" fill="#d9e0e6"/>
    <path id="Path_33" data-name="Path 33" d="M412-62.5V-37h12V-52c0-8.3.3-15,.8-14.9.4,0,5.8,6.7,12,15L448.1-37H459V-88H447v14.5c0,8-.3,14.5-.7,14.4-.5,0-5.7-6.5-11.7-14.5L423.8-88H412Z" fill="#51514f"/>
    <path id="Path_34" data-name="Path 34" d="M516-81c0,4.7-.2,5-2.5,5s-2.5.3-2.5,5,.2,5,2.5,5H516v11c0,13.1,1.1,16.2,6.6,18,4.7,1.6,12.1.5,13.4-2a13.826,13.826,0,0,0,1-5c0-3.1-.1-3.1-4.2-2.8l-4.3.3-.3-9.8-.3-9.7H537V-76h-9V-86H516Z" fill="#51514f"/>
    <path id="Path_35" data-name="Path 35" d="M400.7-76.5a19.946,19.946,0,0,0-6.4,3.7l-2.5,2.3.7-2.8.7-2.7H381v39h11.8l-.1-10c-.1-11.7,1.3-14.5,8.1-17l4.2-1.4v-6.3a51.973,51.973,0,0,0-.2-6.3C404.6-77.9,402.8-77.3,400.7-76.5Z" fill="#d9e0e6"/>
    <path id="Path_36" data-name="Path 36" d="M345.5-75.1a18.709,18.709,0,0,0-10,10.3c-3.1,7.6-1,18.3,4.6,23.5,7.3,6.7,20.8,7,28.5.7l2.9-2.3-3.2-3.2-3.1-3.2L359.7-47c-4.8,2-5.7,2.1-8.2.9a12.985,12.985,0,0,1-4.3-3.7L345.8-52H373v-2.5C373-71.3,359.4-81.5,345.5-75.1Zm14.8,11.8,1.9,3.3H344.9l1.6-2.9c1.8-3.5,2.9-4,8-3.8C357.8-66.5,358.7-66,360.3-63.3Z" fill="#d9e0e6"/>
    <path id="Path_37" data-name="Path 37" d="M478-74.8c-13.3,7.1-14.5,26.5-2.3,35.1,2.9,2.1,5.6,3,10,3.4,6.8.6,11.4-.6,15.8-4.1l3-2.5-3.2-3.3L498-49.4l-3.1,1.8c-4.7,2.8-10.6,2.6-13-.3a9.725,9.725,0,0,1-1.9-3.2c0-.5,5.9-.9,13.1-.9h13.2l-.5-6.4c-.9-11.3-6.8-17.4-17.6-18.3C483.5-77.1,481.7-76.8,478-74.8Zm15.3,11c1.2,1.5,1.8,3,1.5,3.3s-4.3.5-8.8.3l-8.3-.3,2.8-3.3c2.4-2.9,3.3-3.3,6.8-3C490.3-66.6,491.8-65.8,493.3-63.8Z" fill="#51514f"/>
    <path id="Path_38" data-name="Path 38" d="M239.9-73.8c13.4,34.7,14.2,37.1,12.9,38a7.217,7.217,0,0,1-4.1.5c-2.4-.3-3.1.2-4.8,3.4a35.186,35.186,0,0,0-1.9,4.3c0,.9,6.5,2.6,9.9,2.6a12.213,12.213,0,0,0,10.3-5c1.6-2.2,17.8-43.3,17.8-45.2,0-.5-2.7-.8-6-.8h-5.9l-4,12.2-3.9,12.3L258.7-55c-.8-1.9-2.7-7.4-4.3-12.3L251.6-76h-6.3C239.2-76,239.1-75.9,239.9-73.8Z" fill="#d9e0e6"/>
    <path id="Path_39" data-name="Path 39" d="M78-39V-5H96V-73H78Z" fill="#d9e0e6"/>
    <path id="Path_40" data-name="Path 40" d="M45-33V-5H62V-61H45Z" fill="#d9e0e6"/>
    <path id="Path_41" data-name="Path 41" d="M11-27V-5H28V-49H11Z" fill="#d9e0e6"/>
  </g>
</svg>
