<svg xmlns="http://www.w3.org/2000/svg" xmlns:xlink="http://www.w3.org/1999/xlink" width="30" height="30" viewBox="0 0 30 30">
  <defs>
    <clipPath id="clip-path">
      <rect id="Rectangle_4" data-name="Rectangle 4" width="30" height="30" transform="translate(981 1219)" fill="#fff" stroke="#707070" stroke-width="1"/>
    </clipPath>
  </defs>
  <g id="Mask_Group_2" data-name="Mask Group 2" transform="translate(-981 -1219)" clip-path="url(#clip-path)">
    <g id="phone" transform="translate(980.953 1249.019)">
      <path id="Path_44" data-name="Path 44" d="M3.865-29.206c-1.826.938-2.564,1.589-3.1,2.727a7.632,7.632,0,0,0-.688,3.965A25.169,25.169,0,0,0,3.19-11.482C6.292-5.316,10.782-.763,14.4-.113c1.326.238,2.2.05,4.09-.888l1.551-.75L19.6-2.539c-.238-.425-1.226-2.339-2.214-4.24L15.61-10.244l-1.363.688a7.214,7.214,0,0,1-1.739.675c-1.251,0-3.177-2.076-4.565-4.941C6.592-16.6,6.191-19.062,6.954-19.9a9.236,9.236,0,0,1,1.576-.938l1.338-.675-.6-1.151C8.931-23.3,7.943-25.216,7.08-26.93s-1.6-3.089-1.614-3.089S4.728-29.644,3.865-29.206Z" fill="#d9e0e6"/>
      <path id="Path_45" data-name="Path 45" d="M15.985-18.5a2,2,0,0,0-.976,1.614,2.342,2.342,0,0,0,.25.876,1.974,1.974,0,0,0,1.626,1,2.342,2.342,0,0,0,.876-.25,1.974,1.974,0,0,0,1-1.626,1.974,1.974,0,0,0-1-1.626A1.768,1.768,0,0,0,15.985-18.5Z" fill="#d9e0e6"/>
      <path id="Path_46" data-name="Path 46" d="M21.614-18.5a2,2,0,0,0-.976,1.614,2.342,2.342,0,0,0,.25.876,1.974,1.974,0,0,0,1.626,1,2,2,0,0,0,1.876-1.876,1.974,1.974,0,0,0-1-1.626A1.768,1.768,0,0,0,21.614-18.5Z" fill="#d9e0e6"/>
      <path id="Path_47" data-name="Path 47" d="M27.242-18.5a2,2,0,0,0-.976,1.614,1.974,1.974,0,0,0,1,1.626,2.342,2.342,0,0,0,.876.25,2,2,0,0,0,1.876-1.876,1.974,1.974,0,0,0-1-1.626A1.768,1.768,0,0,0,27.242-18.5Z" fill="#d9e0e6"/>
    </g>
  </g>
</svg>
