<svg xmlns="http://www.w3.org/2000/svg" xmlns:xlink="http://www.w3.org/1999/xlink" width="30" height="30" viewBox="0 0 30 30">
  <defs>
    <clipPath id="clip-path">
      <rect id="Rectangle_3" data-name="Rectangle 3" width="30" height="30" transform="translate(981 1187)" fill="#fff"/>
    </clipPath>
  </defs>
  <g id="Mask_Group_1" data-name="Mask Group 1" transform="translate(-981 -1187)" clip-path="url(#clip-path)">
    <g id="whatsapp" transform="translate(980.937 1217.062)">
      <path id="Path_42" data-name="Path 42" d="M12.482-29.877a14.853,14.853,0,0,0-8.171,4.449,13.337,13.337,0,0,0-2.694,3.923,14.786,14.786,0,0,0-.05,12.582l.576,1.241L1.115-3.91C.551-1.83.113-.1.138-.063s1.792-.4,3.91-.952L7.9-2.03l1.153.5A14.888,14.888,0,0,0,15.1-.251a14.771,14.771,0,0,0,10.226-4.1,14.582,14.582,0,0,0,4.662-10.941,14.269,14.269,0,0,0-4.1-10.139,14.792,14.792,0,0,0-8.271-4.461A18.566,18.566,0,0,0,12.482-29.877Zm5.163,2.619a12.369,12.369,0,0,1,9.625,10,14.276,14.276,0,0,1-.188,5.163A15.131,15.131,0,0,1,25.139-7.97a12.815,12.815,0,0,1-6.73,4.7,12.2,12.2,0,0,1-8.848-.877L8.284-4.775,6.066-4.2A18.576,18.576,0,0,1,3.8-3.684,15.177,15.177,0,0,1,4.311-5.89L4.9-8.033,4.136-9.562a9.8,9.8,0,0,1-1.3-5.539,11.7,11.7,0,0,1,.213-2.87A12.441,12.441,0,0,1,17.645-27.257Z" fill="#d9e0e6"/>
      <path id="Path_43" data-name="Path 43" d="M9.174-21.881a4.372,4.372,0,0,0-1.366,1.8,5.733,5.733,0,0,0,.075,3.459,16.092,16.092,0,0,0,3.07,4.311,12.955,12.955,0,0,0,5.815,3.835c2.231.777,3.822.564,5.076-.652.79-.764,1.115-2.356.564-2.707a16.638,16.638,0,0,0-3.572-1.516,4.263,4.263,0,0,0-.9.94,3.987,3.987,0,0,1-.9.94c-.326.113-2.256-.915-3.221-1.7a10.758,10.758,0,0,1-2.356-2.945c-.063-.238.025-.414.376-.815a4.8,4.8,0,0,0,.664-.927c.2-.414.188-.439-.464-2.03-.915-2.243-.852-2.168-1.792-2.168A3.182,3.182,0,0,0,9.174-21.881Z" fill="#d9e0e6"/>
    </g>
  </g>
</svg>
